<svg id="visual" viewBox="0 0 900 900" width="900" height="900" xmlns="http://www.w3.org/2000/svg" xmlns:xlink="http://www.w3.org/1999/xlink" version="1.1"><rect x="0" y="0" width="900" height="900" fill="#0000"></rect><defs><linearGradient id="grad1_0" x1="0%" y1="0%" x2="100%" y2="100%"><stop offset="30%" stop-color="#0000" stop-opacity="1"></stop><stop offset="70%" stop-color="#0000" stop-opacity="1"></stop></linearGradient></defs><defs><linearGradient id="grad2_0" x1="0%" y1="0%" x2="100%" y2="100%"><stop offset="30%" stop-color="#0000" stop-opacity="1"></stop><stop offset="70%" stop-color="#0000" stop-opacity="1"></stop></linearGradient></defs><g transform="translate(900, 0)"><path d="M0 572.8C-76.4 554.2 -152.8 535.7 -204.4 493.4C-256 451 -282.8 384.8 -340.1 340.1C-397.5 295.4 -485.3 272.3 -529.2 219.2C-573 166.1 -572.9 83 -572.8 0L0 0Z" fill="#effbff"></path></g><g transform="translate(0, 900)"><path d="M0 -572.8C81.7 -571.9 163.5 -571.1 219.2 -529.2C274.9 -487.2 304.5 -404.1 345.1 -345.1C385.6 -286 437 -251 476.7 -197.5C516.5 -144 544.6 -72 572.8 0L0 0Z" fill="#effbff"></path></g></svg>